<?xml version="1.0" standalone="no"?>
<!DOCTYPE svg PUBLIC "-//W3C//DTD SVG 20010904//EN"
 "http://www.w3.org/TR/2001/REC-SVG-20010904/DTD/svg10.dtd">
<svg version="1.0" xmlns="http://www.w3.org/2000/svg"
 width="900.000000pt" height="498.000000pt" viewBox="0 0 900.000000 498.000000"
 preserveAspectRatio="xMidYMid meet">
<metadata>
Created by potrace 1.10, written by Peter Selinger 2001-2011
</metadata>
<g transform="translate(0.000000,498.000000) scale(0.100000,-0.100000)"
fill="#000000" stroke="none">
<path d="M3000 4924 c-41 -8 -91 -20 -110 -26 -19 -6 -51 -15 -70 -19 -32 -6
-71 -19 -125 -40 -11 -4 -51 -22 -90 -39 -38 -18 -79 -36 -90 -41 -11 -5 -33
-18 -50 -29 -16 -11 -37 -23 -45 -27 -23 -10 -162 -117 -216 -165 -56 -51
-204 -218 -204 -231 0 -5 -13 -26 -29 -46 -46 -59 -98 -155 -136 -251 -59
-153 -70 -202 -91 -412 -4 -38 -12 -73 -19 -78 -7 -6 -48 -14 -91 -20 -97 -11
-179 -28 -221 -46 -17 -8 -40 -14 -51 -14 -12 0 -23 -4 -27 -9 -3 -5 -20 -13
-38 -17 -29 -6 -102 -37 -202 -86 -54 -26 -121 -65 -173 -99 -24 -16 -47 -29
-52 -29 -4 0 -10 -3 -12 -8 -2 -4 -42 -37 -89 -74 -134 -104 -331 -328 -389
-443 -6 -11 -19 -33 -30 -50 -11 -16 -22 -37 -26 -45 -3 -8 -19 -42 -35 -75
-16 -33 -29 -67 -29 -76 0 -8 -7 -24 -15 -35 -8 -10 -15 -28 -15 -39 0 -11 -7
-33 -15 -49 -8 -15 -15 -39 -15 -51 0 -13 -5 -36 -11 -52 -6 -15 -15 -64 -20
-108 -28 -238 -28 -253 -9 -413 10 -86 24 -175 30 -197 7 -22 19 -65 27 -95 9
-30 22 -67 29 -82 8 -14 14 -32 14 -39 0 -12 47 -119 70 -159 5 -8 19 -33 30
-55 33 -60 139 -215 179 -260 164 -184 364 -347 531 -432 25 -13 52 -27 60
-32 14 -7 35 -17 123 -54 17 -8 49 -22 70 -31 21 -9 46 -16 55 -16 10 0 27 -7
38 -15 10 -8 29 -15 40 -15 12 0 44 -6 70 -14 161 -47 129 -46 1419 -51 671
-3 1990 -11 2930 -16 941 -6 1726 -10 1745 -10 24 1 42 10 60 31 14 15 54 48
90 71 96 63 315 287 382 389 93 144 117 188 191 363 8 17 22 59 32 92 9 33 23
78 31 100 8 23 14 54 14 70 0 17 7 66 15 110 8 44 14 123 14 175 0 52 -6 131
-14 175 -8 44 -15 95 -15 114 0 18 -7 54 -15 80 -8 25 -23 75 -34 111 -33 106
-42 130 -94 235 -68 138 -125 230 -185 299 -91 105 -278 278 -357 331 -50 32
-92 62 -95 65 -5 5 -30 18 -140 74 -80 41 -148 69 -220 90 -134 40 -169 49
-210 55 l-45 6 3 75 c3 83 -19 265 -38 320 -60 166 -127 298 -208 405 -58 76
-234 250 -292 290 -25 16 -47 32 -50 36 -22 24 -240 139 -330 173 -25 10 -58
24 -73 32 -16 8 -38 14 -48 14 -11 0 -30 5 -41 11 -57 31 -292 69 -460 76
-119 5 -169 0 -363 -31 -78 -13 -179 -42 -252 -73 -17 -7 -34 -13 -37 -13 -6
0 -143 -66 -171 -83 -11 -7 -36 -24 -56 -39 -20 -16 -40 -28 -44 -28 -4 0 -14
-8 -21 -17 -7 -10 -16 -14 -21 -10 -4 5 0 14 10 21 25 19 22 27 -30 92 -67 81
-135 147 -212 207 -36 28 -68 54 -71 58 -3 3 -12 9 -20 13 -24 11 -57 31 -71
43 -25 20 -190 102 -220 108 -16 4 -31 11 -34 16 -4 5 -15 9 -26 9 -11 0 -30
6 -42 12 -23 13 -75 27 -207 54 -107 23 -497 28 -600 8z m425 -55 c39 -5 99
-14 135 -19 36 -4 79 -13 95 -18 17 -6 64 -21 105 -33 41 -12 79 -26 84 -30 6
-5 16 -9 23 -9 29 0 302 -144 323 -170 3 -3 33 -27 66 -53 34 -25 103 -90 153
-144 72 -77 91 -104 91 -128 1 -29 20 -65 35 -65 4 0 40 24 80 53 125 91 327
182 462 207 27 5 71 14 98 20 29 7 144 12 270 13 224 1 297 -8 426 -48 26 -8
54 -15 63 -15 15 0 65 -19 119 -46 16 -8 35 -14 42 -14 22 0 194 -90 265 -139
36 -24 83 -57 105 -72 57 -39 173 -155 231 -230 26 -35 52 -68 57 -74 18 -22
73 -112 90 -147 83 -175 106 -272 109 -473 l3 -149 60 -12 c132 -26 166 -34
185 -44 10 -5 28 -10 39 -10 11 0 37 -7 58 -16 21 -9 52 -22 68 -28 65 -27
245 -121 245 -128 0 -4 5 -8 10 -8 20 0 214 -153 294 -233 118 -116 216 -252
291 -403 36 -72 65 -136 65 -142 0 -6 6 -26 14 -44 17 -39 37 -112 62 -223 14
-62 18 -124 18 -280 0 -202 -11 -289 -50 -400 -8 -23 -14 -47 -14 -54 0 -7 -7
-29 -16 -49 -8 -21 -21 -50 -28 -67 -109 -256 -285 -489 -486 -640 -36 -27
-67 -52 -70 -55 -3 -3 -21 -16 -40 -30 -33 -24 -42 -25 -165 -24 -71 0 -1379
2 -2906 3 -2357 2 -2784 4 -2835 16 -32 8 -72 14 -88 15 -16 0 -54 7 -85 16
-31 8 -81 22 -111 31 -30 8 -70 21 -88 29 -18 8 -37 14 -42 14 -11 0 -125 50
-175 77 -16 8 -48 25 -70 36 -22 11 -54 31 -72 44 -17 12 -34 23 -38 23 -3 0
-45 30 -93 66 -163 123 -316 286 -418 444 -43 68 -49 79 -89 160 -72 147 -88
194 -130 380 -21 91 -24 131 -25 304 0 199 6 253 47 396 24 87 79 228 94 245
5 5 9 15 9 22 0 19 97 179 158 261 66 88 200 224 285 289 34 26 64 50 67 53 3
4 27 20 53 36 27 16 61 36 75 46 31 18 159 83 212 106 19 8 47 21 62 29 14 7
33 13 42 13 8 0 30 6 48 14 59 25 274 76 325 76 21 0 47 7 57 15 11 8 27 15
37 15 14 0 17 17 22 138 3 75 9 151 15 167 6 17 18 57 27 90 23 82 41 128 82
210 43 88 44 90 126 202 163 221 335 357 592 468 89 38 107 45 119 45 8 0 27
7 42 15 16 8 39 15 50 15 12 0 38 7 57 15 20 8 53 15 74 16 21 0 65 6 98 14
72 16 224 18 320 4z"/>
<path d="M5265 4267 c-33 -12 -76 -31 -95 -42 -19 -10 -51 -27 -70 -36 -255
-123 -376 -184 -378 -191 -2 -4 -9 -8 -16 -8 -7 0 -32 -13 -54 -30 -23 -16
-45 -30 -48 -30 -3 0 -16 -8 -29 -17 -12 -10 -33 -25 -45 -33 -12 -8 -28 -20
-34 -25 -6 -6 -42 -35 -81 -65 -140 -109 -268 -235 -380 -375 -22 -27 -43 -52
-47 -55 -4 -3 -12 -18 -17 -33 -10 -26 -10 -28 11 -21 12 3 36 23 54 43 75 84
95 108 116 136 19 27 51 57 212 197 27 24 99 80 160 126 61 45 116 86 122 91
6 5 20 12 32 15 12 4 22 11 22 15 0 4 56 35 125 69 488 240 507 247 592 243
30 -1 46 -54 37 -123 -6 -52 -39 -163 -54 -183 -4 -5 -11 -26 -14 -45 -8 -40
-10 -45 -65 -160 -37 -77 -51 -104 -74 -134 -55 -77 -112 -152 -117 -156 -4
-3 -44 -50 -89 -105 -87 -105 -222 -241 -331 -335 -132 -113 -157 -136 -224
-202 -38 -37 -72 -68 -75 -68 -3 0 -15 19 -25 42 -59 128 -209 191 -329 138
-83 -37 -167 -158 -167 -240 0 -69 52 -158 119 -204 22 -16 38 -32 35 -37 -3
-5 -43 -9 -88 -9 -53 0 -97 -6 -121 -16 -23 -9 -60 -14 -99 -12 -33 1 -67 -1
-73 -5 -20 -12 -15 -41 10 -65 19 -18 24 -19 41 -6 28 20 51 17 82 -9 l26 -23
-73 -36 c-112 -54 -141 -66 -180 -73 -31 -6 -39 -3 -53 16 -9 13 -16 36 -16
52 0 32 53 165 99 251 17 31 45 82 62 113 17 31 47 82 67 112 20 31 39 61 42
66 6 13 52 85 99 155 60 92 222 291 296 365 73 72 100 96 173 154 31 24 42 40
40 55 -4 29 -19 26 -63 -9 -124 -101 -248 -223 -325 -320 -30 -39 -65 -81 -77
-95 -13 -14 -23 -28 -23 -31 0 -3 -8 -15 -17 -27 -10 -11 -25 -30 -33 -42 -8
-12 -22 -32 -31 -44 -34 -45 -158 -233 -179 -271 -12 -22 -33 -60 -47 -85 -47
-83 -111 -215 -118 -243 -4 -15 -11 -30 -16 -33 -5 -3 -9 -33 -9 -68 0 -57 3
-65 33 -94 27 -27 41 -32 79 -32 26 0 50 5 53 10 3 6 14 10 24 10 9 0 62 22
116 50 54 28 102 50 106 50 11 0 156 100 186 129 28 26 29 26 168 24 77 0 228
-5 335 -10 169 -8 202 -13 247 -33 43 -18 56 -20 68 -10 30 25 17 47 -37 66
-63 21 -337 31 -458 16 -74 -9 -104 -7 -98 8 2 4 27 26 56 49 28 23 52 48 52
55 0 7 6 19 14 25 8 7 18 37 22 68 6 49 11 58 47 84 35 26 137 112 187 159 9
8 45 40 81 70 148 125 285 263 374 375 22 27 45 55 50 61 46 51 69 80 101 126
20 29 40 55 44 58 8 6 72 116 88 150 34 76 52 121 67 170 9 30 20 62 25 71 5
9 12 33 15 53 4 20 11 38 15 41 12 7 23 127 16 161 -4 16 -16 40 -28 54 -17
22 -29 25 -92 27 -53 1 -86 -4 -131 -20z m-1058 -1446 c60 -28 103 -91 103
-150 0 -39 -5 -49 -31 -70 -17 -14 -47 -41 -66 -62 -32 -33 -39 -37 -72 -31
-45 7 -84 30 -113 67 -18 23 -22 41 -22 96 0 62 3 72 29 100 28 29 97 69 120
69 6 0 29 -9 52 -19z m-243 -440 c8 -13 -82 -71 -110 -71 -18 0 -54 31 -48 42
3 4 17 8 32 9 15 0 43 7 62 14 43 16 57 18 64 6z"/>
<path d="M1921 2912 c-50 -24 -117 -88 -141 -133 -28 -55 -28 -163 1 -218 26
-51 56 -83 109 -116 41 -26 44 -26 222 -27 99 0 184 4 188 9 5 4 5 26 1 48 -6
36 -9 40 -34 37 -45 -6 -50 6 -22 55 65 118 3 274 -136 341 -55 27 -139 28
-188 4z m150 -96 c82 -34 120 -127 84 -207 -44 -100 -140 -130 -223 -69 -65
47 -87 120 -58 191 34 81 119 117 197 85z"/>
<path d="M2939 2923 c0 -5 0 -118 0 -253 l0 -245 158 -5 c87 -3 166 -3 176 -1
15 3 17 12 15 50 l-3 46 -120 0 -120 0 4 208 3 207 -56 0 c-31 0 -56 -3 -57
-7z"/>
<path d="M5038 2918 c-2 -7 -1 -92 2 -188 6 -199 10 -212 82 -273 45 -38 49
-39 122 -40 65 0 80 3 115 26 23 15 52 44 65 65 24 35 25 44 26 217 1 99 2
186 1 193 -1 9 -15 12 -48 10 l-48 -3 4 -171 4 -171 -37 -36 c-47 -47 -98 -51
-145 -11 l-31 26 0 184 0 184 -54 0 c-34 0 -55 -5 -58 -12z"/>
<path d="M6110 2675 l0 -255 60 0 c63 0 75 -11 43 -36 -22 -17 -181 -94 -398
-194 -38 -17 -88 -40 -111 -51 -23 -10 -48 -19 -57 -19 -9 0 -18 -4 -21 -9 -3
-5 -21 -12 -40 -15 -19 -4 -39 -13 -46 -21 -7 -8 -23 -15 -36 -15 -27 0 -32
-17 -8 -27 15 -6 97 16 161 44 17 7 38 13 46 13 9 0 18 4 22 9 3 5 19 12 35
16 17 4 30 11 30 16 0 5 9 9 20 9 11 0 37 9 57 20 21 11 43 20 50 20 7 0 13 4
13 9 0 5 12 14 28 20 15 6 52 25 82 41 45 25 56 28 58 16 2 -8 -6 -25 -18 -38
-35 -38 -240 -351 -240 -367 0 -6 -7 -11 -15 -11 -8 0 -15 4 -15 8 0 15 -64
74 -102 93 -31 16 -59 19 -163 19 l-125 0 0 -251 0 -252 56 6 c69 7 80 -10 37
-56 -16 -18 -61 -72 -98 -122 -247 -321 -543 -636 -698 -742 -23 -15 -47 -32
-53 -38 -6 -5 -28 -19 -50 -30 -21 -11 -40 -23 -42 -27 -2 -5 -11 -8 -21 -8
-9 0 -26 -7 -37 -15 -10 -8 -28 -15 -39 -15 -11 0 -32 -6 -46 -14 -14 -7 -43
-16 -65 -20 -21 -5 -43 -11 -49 -16 -5 -4 -37 -10 -69 -14 -33 -4 -66 -12 -74
-19 -22 -17 -434 -17 -439 1 -3 6 -22 15 -44 18 -21 4 -39 10 -39 14 0 5 -15
12 -32 15 -18 4 -42 14 -53 21 -11 8 -27 14 -37 14 -10 0 -18 4 -18 10 0 5
-12 13 -27 16 -15 4 -32 11 -38 16 -92 77 -115 113 -115 187 0 51 5 69 32 112
32 52 92 119 107 119 4 0 19 9 32 20 40 33 42 34 114 68 112 54 128 60 163 67
17 4 32 11 32 16 0 5 15 9 33 9 17 0 43 6 58 13 14 8 49 17 79 20 29 4 58 11
64 17 5 5 28 10 51 10 22 0 58 5 80 11 22 6 80 15 130 20 49 5 107 14 130 21
22 6 131 12 245 13 198 3 205 3 208 23 5 35 -29 44 -151 39 -147 -6 -341 -24
-381 -36 -17 -6 -69 -15 -116 -20 -147 -17 -234 -31 -244 -40 -6 -5 -35 -12
-63 -16 -29 -4 -55 -11 -59 -16 -3 -5 -17 -9 -32 -9 -15 0 -40 -7 -56 -15 -15
-8 -35 -15 -43 -15 -8 0 -27 -6 -41 -13 -15 -8 -45 -22 -67 -32 -41 -19 -150
-81 -174 -100 -7 -5 -40 -37 -73 -70 -79 -79 -108 -138 -108 -219 0 -53 5 -68
34 -114 37 -55 83 -101 103 -102 6 0 13 -4 15 -8 4 -11 86 -52 103 -52 8 0 15
-4 15 -10 0 -5 16 -12 35 -16 19 -3 38 -10 41 -15 3 -5 15 -9 27 -9 12 0 36
-7 52 -16 25 -14 67 -17 262 -17 148 0 236 3 245 10 7 6 40 14 73 18 33 4 65
10 70 15 6 4 29 11 52 15 24 4 45 11 49 16 3 5 13 9 22 9 9 1 35 9 57 20 22
11 46 19 53 20 6 0 12 5 12 10 0 6 6 10 13 10 7 0 49 23 92 52 82 54 92 61
179 137 58 51 261 255 291 294 11 14 67 81 125 149 57 67 108 128 113 133 23
27 114 157 148 211 38 60 41 62 101 74 54 12 68 20 118 70 52 52 58 62 64 113
4 31 4 76 1 101 -5 33 -3 46 7 52 17 11 125 153 158 209 28 47 113 178 120
185 3 3 17 23 31 45 14 22 50 68 79 103 46 53 58 62 87 62 46 0 107 33 157 85
34 35 44 54 53 102 12 65 1 156 -23 184 -8 8 -14 20 -14 25 0 5 -10 18 -23 29
-66 61 -142 85 -269 85 l-98 0 0 -255z m231 143 c37 -13 55 -27 81 -67 25 -37
24 -124 -3 -167 -27 -44 -98 -76 -159 -72 l-45 3 -1 150 c0 83 1 153 3 158 6
11 86 8 124 -5z m-665 -958 c38 -24 74 -80 74 -116 0 -14 -11 -37 -25 -52 -14
-15 -35 -43 -47 -62 -12 -19 -28 -41 -36 -47 -17 -14 -122 -18 -122 -5 -1 13
-1 287 -1 295 1 4 29 7 62 7 45 0 71 -6 95 -20z"/>
<path d="M5411 2021 c-8 -5 -9 -11 -3 -15 14 -8 43 4 36 15 -7 11 -15 11 -33
0z"/>
<path d="M5305 1990 c-3 -5 -16 -10 -28 -10 -12 0 -35 -7 -51 -15 -15 -8 -36
-15 -45 -15 -9 0 -25 -6 -36 -14 -11 -7 -39 -17 -62 -21 -24 -4 -45 -10 -48
-15 -3 -4 -25 -11 -50 -14 -24 -4 -47 -11 -50 -17 -4 -5 -16 -9 -28 -9 -12 0
-34 -6 -49 -14 -15 -8 -42 -17 -60 -21 -18 -4 -40 -13 -48 -19 -25 -20 -91
-36 -160 -39 l-65 -2 -3 58 -3 57 126 0 126 0 -3 47 -3 48 -170 -1 -170 -1 0
-134 0 -134 -75 -6 c-41 -4 -106 -14 -145 -23 -38 -10 -99 -21 -135 -26 -36
-5 -81 -14 -100 -19 -95 -26 -380 -48 -421 -32 -30 11 -44 55 -23 72 9 7 49
10 111 8 l98 -4 0 50 0 50 -75 -4 c-151 -8 -135 -14 -138 52 l-3 57 126 0 126
0 -3 47 -3 48 -170 -2 c-93 -1 -172 -2 -175 -2 -6 -1 -3 -492 4 -498 2 -3 80
-5 172 -5 144 0 168 2 176 16 5 9 7 25 3 35 -11 36 20 51 103 51 42 1 97 5
122 11 25 6 76 15 114 20 39 5 75 14 80 18 6 5 32 12 58 15 26 4 60 13 75 21
15 7 44 15 63 17 l35 3 0 -97 c0 -53 3 -99 7 -103 9 -9 331 -10 346 -1 16 10
15 81 0 94 -8 6 -54 8 -126 3 -63 -3 -118 -3 -123 0 -6 3 -9 28 -7 55 l3 49
105 0 105 0 3 35 c5 48 25 67 83 75 27 4 51 10 54 15 3 4 25 11 50 14 24 4 47
11 50 17 4 5 16 9 28 9 12 0 35 7 51 15 15 8 38 15 50 15 12 0 31 7 42 15 10
8 28 15 39 15 11 0 33 7 48 15 15 8 43 17 62 21 19 3 35 10 35 14 0 4 14 13
30 19 17 5 30 15 30 20 0 14 -77 14 -85 1z"/>
<path d="M2570 1973 c-49 -9 -110 -86 -110 -136 0 -40 26 -90 59 -114 16 -13
33 -23 37 -23 4 0 28 -10 53 -22 74 -35 89 -68 48 -106 -31 -29 -68 -28 -125
4 l-46 26 -23 -27 c-41 -47 -27 -71 54 -96 32 -11 72 -19 90 -19 46 0 115 33
146 70 23 26 27 41 27 88 -1 65 -21 97 -80 124 -93 43 -113 54 -126 73 -21 32
-7 64 31 71 36 6 115 -12 115 -26 0 -16 26 -11 43 8 29 31 25 63 -8 83 -31 18
-140 31 -185 22z"/>
</g>
</svg>
